#N canvas 1087 24 292 375 12;
#X declare -lib Gem;
#N canvas 668 23 689 549 video 0;
#X obj 8 152 gemhead;
#X obj 8 134 tgl 15 0 empty empty empty 17 7 0 10 -262144 -1 -1 1 1
;
#X obj 104 298 pix_film;
#X obj 104 137 bng 40 250 50 0 empty empty Load 0 -10 0 10 -262144
-1 -1;
#X obj 104 191 openpanel;
#X msg 104 216 open \$1;
#X msg 194 209 auto \$1;
#X obj 156 137 tgl 40 0 empty empty Start 0 -10 0 10 -262144 -1 -1
0 1;
#X floatatom 130 372 6 0 0 3 Length - -;
#X floatatom 183 372 4 0 0 3 Width - -;
#X floatatom 225 373 4 0 0 3 Height - -;
#X obj 104 423 pix_texture;
#X obj 130 341 unpack f f f f;
#X floatatom 270 373 5 0 0 3 fps - -;
#X obj 157 322 bng 15 250 50 0 empty empty reached_end 17 7 0 10 -262144
-1 -1;
#X floatatom 157 276 5 0 0 1 frame_number - -;
#X obj 59 341 s pix;
#X obj 156 57 / 127;
#X floatatom 156 80 5 0 0 0 - - -;
#X obj 8 111 loadbang;
#X floatatom 103 56 5 0 0 0 - - -;
#X obj 103 33 notein 1;
#X obj 104 454 rectangle 8 4;
#X text -34 56 MIDInote (Inactive);
#X text 103 102 Picture/Video;
#X obj 377 68 declare -lib Gem;
#N canvas 927 592 339 162 gemwindow 0;
#X msg 41 68 create \, 1;
#X msg 232 67 0 \, destroy;
#X obj 41 103 gemwin;
#X obj 121 13 loadbang;
#X msg 121 68 dimen 960 540;
#X obj 41 46 delay 100;
#X text 228 46 Delete_window;
#X text 131 49 Window_size;
#X text 19 19 Make_Window;
#X connect 0 0 2 0;
#X connect 1 0 2 0;
#X connect 3 0 4 0;
#X connect 3 0 5 0;
#X connect 4 0 2 0;
#X connect 5 0 0 0;
#X restore 377 99 pd gemwindow;
#N canvas 717 23 486 837 sound 0;
#X floatatom 264 311 5 0 0 1 Gray_Value_(LFO_Rate) - -;
#X floatatom 237 103 5 0 0 0 - - -;
#X floatatom 149 104 5 0 0 0 - - -;
#X floatatom 61 105 5 0 0 0 - - -;
#X text 149 68 color-list;
#X obj 61 68 unpack f f f;
#X obj 219 802 dac~, f 5;
#X obj 219 696 *~;
#X floatatom 258 370 5 0 0 1 LFO_Depth LFOdepth -;
#X obj 219 399 *~;
#X obj 219 344 osc~;
#X text 254 346 LFO;
#X obj 219 436 +~;
#X text 250 433 pitch;
#X text 250 397 depth;
#X obj 250 731 rev2~ 100 90 300 20;
#X obj 219 468 osc~;
#X floatatom 237 208 5 0 0 0 - - -;
#X obj 131 398 *~;
#X obj 131 344 osc~;
#X obj 131 435 +~;
#X obj 131 469 osc~;
#X floatatom 149 208 5 0 0 0 - - -;
#X obj 43 396 *~;
#X obj 43 344 osc~;
#X obj 43 433 +~;
#X obj 43 469 osc~;
#X floatatom 61 207 5 0 0 0 - - -;
#X obj 61 180 * 100;
#X obj 149 180 * 1000;
#X obj 237 180 * 10000;
#X obj 93 152 r red;
#X obj 188 154 r green;
#X obj 283 154 r blue;
#X obj 61 44 r color;
#X obj 264 285 r grey;
#X obj 43 601 *~;
#X obj 61 578 line~;
#X msg 61 557 \$1 25;
#X floatatom 61 535 5 0 0 0 - - -;
#X obj 61 512 r R_vol;
#X obj 72 235 s R_value;
#X obj 161 235 s G_value;
#X obj 264 235 s B_value;
#X obj 219 601 *~;
#X obj 237 578 line~;
#X msg 237 557 \$1 25;
#X floatatom 237 535 5 0 0 0 - - -;
#X obj 131 600 *~;
#X obj 149 577 line~;
#X msg 149 556 \$1 25;
#X floatatom 149 534 5 0 0 0 - - -;
#X obj 149 511 r G_vol;
#X obj 237 512 r B_vol;
#X floatatom 282 706 5 0 0 0 - - -;
#X obj 282 680 r Rev_level;
#X obj 237 655 r~ vol;
#X text 60 493 R_volmue;
#X text 149 493 G_volmue;
#X text 237 494 B_volmue;
#X text 367 681 Reverb_slider;
#X text 285 655 Volume_slider;
#X text 102 104 Red;
#X text 189 104 Green;
#X text 280 104 Blue;
#X text 282 135 Blue_slider;
#X text 91 134 Red_slider;
#X text 187 135 Green_slider;
#X text 72 430 pitch;
#X text 72 394 depth;
#X text 162 436 pitch;
#X text 162 400 depth;
#X text 77 344 LFO;
#X text 164 344 LFO;
#X obj 219 774 *~ 0.5;
#X obj 272 774 *~ 0.5;
#X text 316 286 Receive_Grey_scale;
#X text 127 42 Receive_RGB_scales;
#X text 295 207 Frequency_values;
#X text 294 181 Frequency_Ranges;
#X text 259 468 Sine_Oscillators;
#X text 280 535 30% volume each;
#X text 332 706 Reverb_Object;
#X text 322 772 Attenuators;
#X text 45 4 Receive RGB values on Gem screen　pixe and convert to
sinusoidal signals;
#X text 83 256 Send values to the Frequency Windows on GUI;
#X connect 0 0 10 0;
#X connect 0 0 19 0;
#X connect 0 0 24 0;
#X connect 1 0 30 0;
#X connect 2 0 29 0;
#X connect 3 0 28 0;
#X connect 5 0 3 0;
#X connect 5 1 2 0;
#X connect 5 2 1 0;
#X connect 7 0 15 0;
#X connect 7 0 74 0;
#X connect 7 0 75 0;
#X connect 8 0 9 1;
#X connect 9 0 12 0;
#X connect 10 0 9 0;
#X connect 12 0 16 0;
#X connect 15 0 74 0;
#X connect 15 1 75 0;
#X connect 16 0 44 0;
#X connect 17 0 12 1;
#X connect 17 0 43 0;
#X connect 18 0 20 0;
#X connect 19 0 18 0;
#X connect 20 0 21 0;
#X connect 21 0 48 0;
#X connect 22 0 20 1;
#X connect 22 0 42 0;
#X connect 23 0 25 0;
#X connect 24 0 23 0;
#X connect 25 0 26 0;
#X connect 26 0 36 0;
#X connect 27 0 25 1;
#X connect 27 0 41 0;
#X connect 28 0 27 0;
#X connect 29 0 22 0;
#X connect 30 0 17 0;
#X connect 31 0 28 1;
#X connect 32 0 29 1;
#X connect 33 0 30 1;
#X connect 34 0 5 0;
#X connect 35 0 0 0;
#X connect 36 0 7 0;
#X connect 37 0 36 1;
#X connect 38 0 37 0;
#X connect 39 0 38 0;
#X connect 40 0 39 0;
#X connect 44 0 7 0;
#X connect 45 0 44 1;
#X connect 46 0 45 0;
#X connect 47 0 46 0;
#X connect 48 0 7 0;
#X connect 49 0 48 1;
#X connect 50 0 49 0;
#X connect 51 0 50 0;
#X connect 52 0 51 0;
#X connect 53 0 47 0;
#X connect 54 0 15 1;
#X connect 55 0 54 0;
#X connect 56 0 7 1;
#X connect 74 0 6 0;
#X connect 75 0 6 1;
#X restore 377 195 pd sound;
#X obj -40 210 s pointer;
#N canvas 11 23 587 332 pointer 0;
#X obj 27 190 loadbang;
#X msg 27 217 draw line;
#X obj 103 218 scaleXYZ;
#X floatatom 138 189 5 0 0 0 - - -;
#X obj 103 298 circle;
#X msg 168 133 1.3;
#X obj 233 133 pack f f f;
#X obj 233 85 r x;
#X obj 266 85 r y;
#X obj 233 109 - 5;
#X obj 168 109 loadbang;
#X obj 142 252 loadbang;
#X obj 103 85 r pointer;
#X msg 142 275 0.1;
#X text 178 275 pointer_size;
#X obj 266 109 - 5;
#X text 102 64 From_pd_vedio;
#X text 231 64 From_pd_controller;
#X obj 103 157 translate -5 -5 0;
#X text 296 108 Adjust the pointer in the center screen;
#X text 37 24 Generate pointer and connect to the controller;
#X text 157 297 circle_pointer;
#X connect 0 0 1 0;
#X connect 1 0 4 0;
#X connect 2 0 4 0;
#X connect 3 0 2 1;
#X connect 3 0 2 2;
#X connect 3 0 2 3;
#X connect 5 0 18 1;
#X connect 6 0 18 2;
#X connect 7 0 9 0;
#X connect 8 0 15 0;
#X connect 9 0 6 0;
#X connect 10 0 5 0;
#X connect 11 0 13 0;
#X connect 12 0 18 0;
#X connect 13 0 4 1;
#X connect 15 0 6 1;
#X connect 18 0 2 0;
#X restore 377 164 pd pointer;
#X text 507 66 imporing_Gem;
#X text 474 97 Gem_window_setup;
#X text 478 130 Receiving_MIDI;
#X text 463 163 Pointer_on_Gem_window;
#X text 455 195 Audio setup;
#X text 198 58 MIDI Velocity;
#X text 197 80 1:ON/2:OFF;
#X text 193 425 Make_Gem_screen;
#N canvas 166 342 744 454 controller 0;
#X obj 50 358 pix_data;
#X obj 67 328 r pix;
#X obj 50 259 bng 15 250 50 0 empty empty empty 17 7 0 10 -262144 -1
-1;
#X obj 50 234 loadbang;
#X obj 395 237 vsl 15 64 0 1 0 0 empty empty Y_position 20 7 0 10 -262144
-1 -1 2821 1;
#X obj 50 279 metro 100;
#X floatatom 193 120 5 0 0 1 MIDI_value - -;
#X obj 395 173 mapping/smooth 0.2;
#X floatatom 395 121 5 0 0 1 MIDI_value - -;
#X obj 193 173 mapping/smooth 0.2;
#X obj 196 289 hsl 128 15 0 1 0 0 empty empty X_position 2 -8 0 10
-262144 -1 -1 0 1;
#X obj 193 95 ctlin 22;
#X obj 395 96 ctlin 21;
#X obj 328 198 s x;
#X obj 530 197 s y;
#X obj 49 392 s color;
#X obj 109 392 s gray;
#X obj 193 147 / 127;
#X obj 395 147 / 127;
#X text 370 70 MIDI_value_from_X_microbit_accelerometer;
#X obj 328 149 / 127;
#X obj 530 149 / 127;
#X obj 530 173 * 10;
#X obj 328 173 * 10;
#X text 114 70 MIDI_value_from_microbit_compass;
#X text 575 151 0-127 scaled to 0-10;
#X text 48 148 0-127 scaled to 0-1;
#X text 574 170 for the screen pointer;
#X text 47 167 for Gem pix point;
#X text 14 212 Read pix every 100ms;
#X text 57 307 From_pd_video;
#X text 53 414 To_pd_sound;
#X text 237 217 To_pd_controller;
#X text 529 217 To_pd_controller;
#X text 120 357 Read_color_values_on_Gem_screen;
#X text 14 10 MIDI IN from the microbit. Scale the values separately
for the pointer and pixel read on Gem screen;
#X connect 0 1 15 0;
#X connect 0 2 16 0;
#X connect 1 0 0 1;
#X connect 2 0 5 0;
#X connect 3 0 2 0;
#X connect 4 0 0 3;
#X connect 5 0 0 0;
#X connect 6 0 17 0;
#X connect 6 0 20 0;
#X connect 7 0 4 0;
#X connect 8 0 18 0;
#X connect 8 0 21 0;
#X connect 9 0 10 0;
#X connect 10 0 0 2;
#X connect 11 0 6 0;
#X connect 12 0 8 0;
#X connect 17 0 9 0;
#X connect 18 0 7 0;
#X connect 20 0 23 0;
#X connect 21 0 22 0;
#X connect 22 0 14 0;
#X connect 23 0 13 0;
#X restore 377 131 pd controller;
#X text -17 360 To_pd_conterller;
#X text -42 230 To_pd_pointer;
#X text 22 172 Load_Gem;
#X text 167 32 Receive_microbit_buttons;
#X text 374 34 Other subpatches;
#X text -33 5 Create Gem screen and connect with subpacthes;
#X connect 0 0 2 0;
#X connect 0 0 28 0;
#X connect 1 0 0 0;
#X connect 2 0 11 0;
#X connect 2 0 16 0;
#X connect 2 1 12 0;
#X connect 2 2 14 0;
#X connect 3 0 4 0;
#X connect 4 0 5 0;
#X connect 5 0 2 0;
#X connect 6 0 2 0;
#X connect 7 0 6 0;
#X connect 11 0 22 0;
#X connect 12 0 8 0;
#X connect 12 1 9 0;
#X connect 12 2 10 0;
#X connect 12 3 13 0;
#X connect 15 0 2 1;
#X connect 17 0 18 0;
#X connect 18 0 7 0;
#X connect 19 0 1 0;
#X connect 21 0 20 0;
#X connect 21 1 17 0;
#X coords 0 -1 1 1 100 80 2 100 100;
#X restore 16 17 pd video;
#X obj 144 82 hsl 128 15 0 100 0 1 LFOdepth empty LFO_Depth -2 -8 0
10 -162280 -1 -1 12700 1;
#N canvas 527 339 913 539 red_radio 0;
#X obj 227 133 hsl 128 15 100 10000 1 1 red redRadio2 Adj. -26 10 0
10 -261234 -1 -1 0 1;
#X msg 54 228 100;
#X msg 92 228 1000;
#X msg 137 228 10000;
#X floatatom 291 106 7 0 0 1 Hz R_value -;
#X obj 54 199 route 0 1 2;
#X obj 103 132 vradio 15 1 1 3 redRadio1 empty empty 0 -8 0 10 -261234
-1 -1 0;
#X text 122 129 10-100Hz;
#X text 122 146 100-1kHz;
#X text 122 161 1kHz-10kHz;
#X obj 227 161 hsl 128 15 0.003 0.3 1 1 R_vol empty Vol. -26 10 0 10
-261682 -33289 -1 12700 1;
#X text 102 104 Red Frequency Range;
#X connect 1 0 0 0;
#X connect 2 0 0 0;
#X connect 3 0 0 0;
#X connect 5 0 1 0;
#X connect 5 1 2 0;
#X connect 5 2 3 0;
#X connect 6 0 5 0;
#X coords 0 -1 1 1 260 80 2 100 100;
#X restore 16 101 pd red_radio;
#N canvas 589 235 851 407 green_radio 0;
#X obj 226 133 hsl 128 15 100 10000 1 1 green empty Adj. -26 10 0 10
-204786 -1 -1 6350 1;
#X msg 54 228 100;
#X msg 92 228 1000;
#X msg 137 228 10000;
#X floatatom 290 106 7 0 0 1 Hz G_value -;
#X obj 54 199 route 0 1 2;
#X obj 103 132 vradio 15 1 1 3 empty empty empty 0 -8 0 10 -204786
-1 -1 1;
#X text 122 129 10-100Hz;
#X text 122 146 100-1kHz;
#X text 122 161 1kHz-10kHz;
#X obj 227 161 hsl 128 15 0.003 0.3 1 1 G_vol empty Vol. -26 10 0 10
-262130 -33289 -1 12700 1;
#X text 102 105 Green Frequency Range;
#X connect 1 0 0 0;
#X connect 2 0 0 0;
#X connect 3 0 0 0;
#X connect 5 0 1 0;
#X connect 5 1 2 0;
#X connect 5 2 3 0;
#X connect 6 0 5 0;
#X coords 0 -1 1 1 260 80 2 100 100;
#X restore 16 189 pd green_radio;
#N canvas 584 251 894 575 blue_radio 0;
#X obj 226 132 hsl 128 15 100 10000 1 1 blue empty Adj. -26 10 0 10
-204800 -1 -1 12700 1;
#X msg 54 228 100;
#X msg 92 228 1000;
#X msg 137 228 10000;
#X floatatom 290 106 7 0 0 1 Hz B_value -;
#X obj 54 199 route 0 1 2;
#X obj 104 131 vradio 15 1 1 3 empty empty empty 0 -8 0 10 -204800
-1 -1 2;
#X text 123 128 10-100Hz;
#X text 123 145 100-1kHz;
#X text 123 160 1kHz-10kHz;
#X obj 226 159 hsl 128 15 0.003 0.3 1 1 B_vol empty Vol. -26 10 0 10
-203904 -33289 -1 12700 1;
#X text 103 104 Blue Frequency Range;
#X connect 1 0 0 0;
#X connect 2 0 0 0;
#X connect 3 0 0 0;
#X connect 5 0 1 0;
#X connect 5 1 2 0;
#X connect 5 2 3 0;
#X connect 6 0 5 0;
#X coords 0 -1 1 1 260 80 2 100 100;
#X restore 16 276 pd blue_radio;
#X obj 144 51 hsl 128 15 0 100 0 1 Rev_level empty Reverb_Level -2
-8 0 10 -191407 -1 -1 12700 1;
#N canvas 894 418 450 306 volume 0;
#X obj 105 115 hsl 128 15 0.01 1 0 1 empty empty Volume -2 -8 0 10
-228856 -1 -1 7807 1;
#X obj 102 163 line~;
#X floatatom 102 52 5 0 0 0 - - -;
#X obj 102 139 \$1 10;
#X text 98 7 volume pod;
#X obj 102 188 s~ vol;
#X obj 102 28 ctlin 24;
#X obj 102 75 * 0.00793;
#X connect 0 0 3 0;
#X connect 1 0 5 0;
#X connect 2 0 7 0;
#X connect 3 0 1 0;
#X connect 6 0 2 0;
#X connect 7 0 0 0;
#X coords 0 -1 1 1 137 32 2 100 100;
#X restore 139 4 pd volume;
